<svg xmlns="http://www.w3.org/2000/svg" width="25" height="24" viewBox="0 0 25 24" fill="none">
    <mask id="mask0_465_12200" style="mask-type:alpha" maskUnits="userSpaceOnUse" x="0" y="0" width="25" height="24">
        <rect x="0.5" width="24" height="24" fill="#D9D9D9"/>
    </mask>
    <g mask="url(#mask0_465_12200)">
        <path d="M4.5 20C3.95 20 3.47917 19.8042 3.0875 19.4125C2.69583 19.0208 2.5 18.55 2.5 18V6C2.5 5.45 2.69583 4.97917 3.0875 4.5875C3.47917 4.19583 3.95 4 4.5 4H20.5C21.05 4 21.5208 4.19583 21.9125 4.5875C22.3042 4.97917 22.5 5.45 22.5 6V18C22.5 18.55 22.3042 19.0208 21.9125 19.4125C21.5208 19.8042 21.05 20 20.5 20H4.5ZM12.5 12.825C12.5833 12.825 12.6708 12.8125 12.7625 12.7875C12.8542 12.7625 12.9417 12.725 13.025 12.675L20.1 8.25C20.2333 8.16667 20.3333 8.0625 20.4 7.9375C20.4667 7.8125 20.5 7.675 20.5 7.525C20.5 7.19167 20.3583 6.94167 20.075 6.775C19.7917 6.60833 19.5 6.61667 19.2 6.8L12.5 11L5.8 6.8C5.5 6.61667 5.20833 6.6125 4.925 6.7875C4.64167 6.9625 4.5 7.20833 4.5 7.525C4.5 7.69167 4.53333 7.8375 4.6 7.9625C4.66667 8.0875 4.76667 8.18333 4.9 8.25L11.975 12.675C12.0583 12.725 12.1458 12.7625 12.2375 12.7875C12.3292 12.8125 12.4167 12.825 12.5 12.825Z" fill="currentColor"/>
    </g>
</svg>